<svg width="512" height="512" viewBox="0 0 512 512" fill="none" xmlns="http://www.w3.org/2000/svg">
	<g id="wedEngLogo">
		<g id="binaryE">
			<path id="d0-1" d="M474 497V456V417" stroke="black" stroke-width="10"/>
			<g id="d1-0">
				<ellipse id="Ellipse23" cx="412" cy="457" rx="29" ry="40" fill="black"/>
				<path id="Ellipse24" d="M433 457.5C433 474.345 423.374 488 411.5 488C399.626 488 390 474.345 390 457.5C390 440.655 399.626 427 411.5 427C423.374 427 433 440.655 433 457.5Z" fill="white"/>
			</g>
			<path id="d2-1" d="M350 497V456V417" stroke="black" stroke-width="10"/>
			<g id="d3-0">
				<ellipse id="Ellipse25" cx="288" cy="457" rx="29" ry="40" fill="black"/>
				<path id="Ellipse26" d="M309 457.5C309 474.345 299.374 488 287.5 488C275.626 488 266 474.345 266 457.5C266 440.655 275.626 427 287.5 427C299.374 427 309 440.655 309 457.5Z" fill="white"/>
			</g>
			<g id="d4-0">
				<ellipse id="Ellipse27" cx="226" cy="457" rx="29" ry="40" fill="black"/>
				<path id="Ellipse28" d="M247 457.5C247 474.345 237.374 488 225.5 488C213.626 488 204 474.345 204 457.5C204 440.655 213.626 427 225.5 427C237.374 427 247 440.655 247 457.5Z" fill="white"/>
			</g>
			<g id="d5-0">
				<ellipse id="Ellipse29" cx="164" cy="457" rx="29" ry="40" fill="black"/>
				<path id="Ellipse30" d="M185 457.5C185 474.345 175.374 488 163.5 488C151.626 488 142 474.345 142 457.5C142 440.655 151.626 427 163.5 427C175.374 427 185 440.655 185 457.5Z" fill="white"/>
			</g>
			<path id="d6-1" d="M102 497L102 456L102 417" stroke="black" stroke-width="10"/>
			<g id="d7-0">
				<ellipse id="Ellipse31" cx="40" cy="457" rx="29" ry="40" fill="black"/>
				<path id="Ellipse32" d="M61 457.5C61 474.345 51.3741 488 39.5 488C27.6259 488 18 474.345 18 457.5C18 440.655 27.6259 427 39.5 427C51.3741 427 61 440.655 61 457.5Z" fill="white"/>
			</g>
		</g>
		<path id="letterE" d="M482.054 210.173H411.245V261.423M411.245 261.423L449.56 261.598M411.245 261.423V310.173H482.054" stroke="black" stroke-width="14"/>
		<g id="gear">
			<path id="gearOutline" opacity="0.8" d="M236.867 145.742C241.596 132.444 260.404 132.444 265.133 145.742L274.134 171.055C277.113 179.43 286.679 183.392 294.707 179.576L318.97 168.043C331.718 161.983 345.017 175.282 338.957 188.03L327.424 212.293C323.608 220.321 327.57 229.887 335.945 232.866L361.258 241.867C374.556 246.596 374.556 265.404 361.258 270.133L335.945 279.134C327.57 282.113 323.608 291.679 327.424 299.707L338.957 323.97C345.017 336.718 331.718 350.017 318.97 343.957L294.707 332.424C286.679 328.608 277.113 332.57 274.134 340.945L265.133 366.258C260.404 379.556 241.596 379.556 236.867 366.258L227.866 340.945C224.887 332.57 215.321 328.608 207.293 332.424L183.03 343.957C170.282 350.017 156.983 336.718 163.043 323.97L174.576 299.707C178.392 291.679 174.43 282.113 166.055 279.134L140.742 270.133C127.444 265.404 127.444 246.596 140.742 241.867L166.055 232.866C174.43 229.887 178.392 220.321 174.576 212.293L163.043 188.03C156.983 175.282 170.282 161.983 183.03 168.043L207.293 179.576C215.321 183.392 224.887 179.43 227.866 171.055L236.867 145.742Z" fill="black"/>
			<circle id="gearCenter" cx="251" cy="256" r="40" fill="white"/>
		</g>
		<path id="letterW" d="M25 203L25 310H58.3125M58.3125 310V256.035M58.3125 310H90V203" stroke="black" stroke-width="14"/>
		<g id="binaryW">
			<path id="d0-1_2" d="M472 95V54V15" stroke="black" stroke-width="10"/>
			<path id="d1-1" d="M410 95V54V15" stroke="black" stroke-width="10"/>
			<path id="d2-1_2" d="M348 95V54V15" stroke="black" stroke-width="10"/>
			<g id="d3-0_2">
				<ellipse id="Ellipse7" cx="286" cy="55" rx="29" ry="40" fill="black"/>
				<path id="Ellipse8" d="M307 55.5C307 72.3447 297.374 86 285.5 86C273.626 86 264 72.3447 264 55.5C264 38.6553 273.626 25 285.5 25C297.374 25 307 38.6553 307 55.5Z" fill="white"/>
			</g>
			<path id="d4-1" d="M224 95V54L224 15" stroke="black" stroke-width="10"/>
			<g id="d5-0_2">
				<ellipse id="Ellipse5" cx="162" cy="55" rx="29" ry="40" fill="black"/>
				<path id="Ellipse6" d="M183 55.5C183 72.3447 173.374 86 161.5 86C149.626 86 140 72.3447 140 55.5C140 38.6553 149.626 25 161.5 25C173.374 25 183 38.6553 183 55.5Z" fill="white"/>
			</g>
			<path id="d6-1_2" d="M100 95L100 54L100 15" stroke="black" stroke-width="10"/>
			<g id="d7-0_2">
				<ellipse id="Ellipse3" cx="40" cy="55" rx="29" ry="40" fill="black"/>
				<path id="Ellipse4" d="M61 55.5C61 72.3447 51.3741 86 39.5 86C27.6259 86 18 72.3447 18 55.5C18 38.6553 27.6259 25 39.5 25C51.3741 25 61 38.6553 61 55.5Z" fill="white"/>
			</g>
		</g>
	</g>
</svg>
